<svg xmlns="http://www.w3.org/2000/svg" width="45" height="43" viewBox="0 0 45 43">
  <g id="Groupe_104" data-name="Groupe 104" transform="translate(-31 -44)">
    <g id="Ellipse_4" data-name="Ellipse 4" transform="translate(31 44)" fill="#fff" stroke="#707070" stroke-width="1">
      <ellipse cx="22.5" cy="21.5" rx="22.5" ry="21.5" stroke="none"/>
      <ellipse cx="22.5" cy="21.5" rx="22" ry="21" fill="none"/>
    </g>
    <g id="Ellipse_34" data-name="Ellipse 34" transform="translate(49 50)" fill="#707070" stroke="#707070" stroke-width="1">
      <ellipse cx="5" cy="5.5" rx="5" ry="5.5" stroke="none"/>
      <ellipse cx="5" cy="5.5" rx="4.5" ry="5" fill="none"/>
    </g>
    <g id="Soustraction_11" data-name="Soustraction 11" transform="translate(-964 6428)" fill="#707070">
      <path d="M 1027.500366210938 -6351.5 L 1008.500305175781 -6351.5009765625 L 1008.499389648438 -6359 C 1008.499389648438 -6363.1357421875 1011.864196777344 -6366.50048828125 1016.000061035156 -6366.50048828125 L 1019.999633789062 -6366.50048828125 C 1024.135498046875 -6366.50048828125 1027.500366210938 -6363.1357421875 1027.500366210938 -6359 L 1027.500366210938 -6351.5 Z" stroke="none"/>
      <path d="M 1027.000366210938 -6352 L 1027.000366210938 -6359 C 1027.000366210938 -6362.85986328125 1023.85986328125 -6366.00048828125 1019.999633789062 -6366.00048828125 L 1016.000061035156 -6366.00048828125 C 1012.139892578125 -6366.00048828125 1008.999389648438 -6362.85986328125 1008.999389648438 -6359 L 1009.000244140625 -6352.0009765625 L 1027.000366210938 -6352 M 1028.000366210938 -6351 L 1008.000366210938 -6351.0009765625 L 1007.999389648438 -6359 C 1007.999389648438 -6363.41162109375 1011.588439941406 -6367.00048828125 1016.000061035156 -6367.00048828125 L 1019.999633789062 -6367.00048828125 C 1024.411254882812 -6367.00048828125 1028.000366210938 -6363.41162109375 1028.000366210938 -6359 L 1028.000366210938 -6351 Z" stroke="none" fill="#707070"/>
    </g>
  </g>
</svg>
